<mxfile host="Electron" modified="2024-03-15T16:46:19.555Z" agent="Mozilla/5.0 (Macintosh; Intel Mac OS X 10_15_7) AppleWebKit/537.36 (KHTML, like Gecko) draw.io/24.0.4 Chrome/120.0.6099.109 Electron/28.1.0 Safari/537.36" etag="NvB4eEhsWJAg570LrDCd" version="24.0.4" type="device">
  <diagram name="Page-1" id="6zOl7idmhi1Rl5u_6ZUn">
    <mxGraphModel dx="1048" dy="538" grid="0" gridSize="10" guides="1" tooltips="1" connect="1" arrows="1" fold="1" page="0" pageScale="1" pageWidth="827" pageHeight="1169" math="0" shadow="0">
      <root>
        <mxCell id="0" />
        <mxCell id="1" parent="0" />
        <mxCell id="YC68AUHZQJWw9kAWprd--1" value="Thread 0" style="rounded=0;whiteSpace=wrap;html=1;fillColor=#dae8fc;strokeColor=#6c8ebf;" parent="1" vertex="1">
          <mxGeometry x="-63" y="148" width="74" height="110" as="geometry" />
        </mxCell>
        <mxCell id="YC68AUHZQJWw9kAWprd--2" value="CPU 0" style="text;html=1;align=center;verticalAlign=middle;resizable=0;points=[];autosize=1;strokeColor=none;fillColor=none;fontSize=16;" parent="1" vertex="1">
          <mxGeometry x="-58" y="95" width="65" height="31" as="geometry" />
        </mxCell>
        <mxCell id="YC68AUHZQJWw9kAWprd--3" value="" style="endArrow=classic;html=1;rounded=0;fontSize=12;startSize=8;endSize=8;curved=1;" parent="1" edge="1">
          <mxGeometry width="50" height="50" relative="1" as="geometry">
            <mxPoint x="-130" y="151" as="sourcePoint" />
            <mxPoint x="-130" y="575" as="targetPoint" />
          </mxGeometry>
        </mxCell>
        <mxCell id="YC68AUHZQJWw9kAWprd--4" value="Time" style="text;html=1;align=center;verticalAlign=middle;resizable=0;points=[];autosize=1;strokeColor=none;fillColor=none;fontSize=16;" parent="1" vertex="1">
          <mxGeometry x="-195" y="148" width="53" height="31" as="geometry" />
        </mxCell>
        <mxCell id="YC68AUHZQJWw9kAWprd--5" value="Thread 1" style="rounded=0;whiteSpace=wrap;html=1;fillColor=#fff2cc;strokeColor=#d6b656;" parent="1" vertex="1">
          <mxGeometry x="-62.5" y="308" width="74" height="110" as="geometry" />
        </mxCell>
        <mxCell id="YC68AUHZQJWw9kAWprd--6" value="Context switch" style="rounded=0;whiteSpace=wrap;html=1;" parent="1" vertex="1">
          <mxGeometry x="-63" y="266" width="74" height="34" as="geometry" />
        </mxCell>
        <mxCell id="YC68AUHZQJWw9kAWprd--7" value="Context switch" style="rounded=0;whiteSpace=wrap;html=1;" parent="1" vertex="1">
          <mxGeometry x="-62.5" y="426" width="74" height="34" as="geometry" />
        </mxCell>
        <mxCell id="YC68AUHZQJWw9kAWprd--8" value="Thread 0" style="rounded=0;whiteSpace=wrap;html=1;fillColor=#dae8fc;strokeColor=#6c8ebf;" parent="1" vertex="1">
          <mxGeometry x="-62.5" y="468" width="74" height="110" as="geometry" />
        </mxCell>
        <mxCell id="YC68AUHZQJWw9kAWprd--9" value="Concurrency" style="text;html=1;align=center;verticalAlign=middle;resizable=0;points=[];autosize=1;strokeColor=#666666;fillColor=#f5f5f5;fontSize=16;fontColor=#333333;" parent="1" vertex="1">
          <mxGeometry x="-80" y="25" width="109" height="31" as="geometry" />
        </mxCell>
        <mxCell id="YC68AUHZQJWw9kAWprd--10" value="Thread 0" style="rounded=0;whiteSpace=wrap;html=1;fillColor=#dae8fc;strokeColor=#6c8ebf;" parent="1" vertex="1">
          <mxGeometry x="121" y="148" width="74" height="431" as="geometry" />
        </mxCell>
        <mxCell id="YC68AUHZQJWw9kAWprd--11" value="CPU 0" style="text;html=1;align=center;verticalAlign=middle;resizable=0;points=[];autosize=1;strokeColor=none;fillColor=none;fontSize=16;" parent="1" vertex="1">
          <mxGeometry x="116" y="97" width="65" height="31" as="geometry" />
        </mxCell>
        <mxCell id="YC68AUHZQJWw9kAWprd--16" value="Parallelism" style="text;html=1;align=center;verticalAlign=middle;resizable=0;points=[];autosize=1;strokeColor=#666666;fillColor=#f5f5f5;fontSize=16;fontColor=#333333;" parent="1" vertex="1">
          <mxGeometry x="162" y="25" width="96" height="31" as="geometry" />
        </mxCell>
        <mxCell id="YC68AUHZQJWw9kAWprd--17" value="Thread 1" style="rounded=0;whiteSpace=wrap;html=1;fillColor=#fff2cc;strokeColor=#d6b656;" parent="1" vertex="1">
          <mxGeometry x="225" y="148" width="74" height="430" as="geometry" />
        </mxCell>
        <mxCell id="YC68AUHZQJWw9kAWprd--18" value="CPU 1" style="text;html=1;align=center;verticalAlign=middle;resizable=0;points=[];autosize=1;strokeColor=none;fillColor=none;fontSize=16;" parent="1" vertex="1">
          <mxGeometry x="220" y="97" width="65" height="31" as="geometry" />
        </mxCell>
        <mxCell id="YC68AUHZQJWw9kAWprd--23" value="" style="endArrow=none;dashed=1;html=1;dashPattern=1 3;strokeWidth=2;rounded=0;fontSize=12;startSize=8;endSize=8;curved=1;" parent="1" edge="1">
          <mxGeometry width="50" height="50" relative="1" as="geometry">
            <mxPoint x="67" y="580" as="sourcePoint" />
            <mxPoint x="64" y="21" as="targetPoint" />
          </mxGeometry>
        </mxCell>
        <mxCell id="YC68AUHZQJWw9kAWprd--25" value="CPU 0" style="text;html=1;align=center;verticalAlign=middle;resizable=0;points=[];autosize=1;strokeColor=none;fillColor=none;fontSize=16;" parent="1" vertex="1">
          <mxGeometry x="409" y="105" width="65" height="31" as="geometry" />
        </mxCell>
        <mxCell id="YC68AUHZQJWw9kAWprd--26" value="Concurrency &amp;amp; Parallelism" style="text;html=1;align=center;verticalAlign=middle;resizable=0;points=[];autosize=1;strokeColor=#666666;fillColor=#f5f5f5;fontSize=16;fontColor=#333333;" parent="1" vertex="1">
          <mxGeometry x="391" y="25" width="207" height="31" as="geometry" />
        </mxCell>
        <mxCell id="YC68AUHZQJWw9kAWprd--28" value="CPU 1" style="text;html=1;align=center;verticalAlign=middle;resizable=0;points=[];autosize=1;strokeColor=none;fillColor=none;fontSize=16;" parent="1" vertex="1">
          <mxGeometry x="513" y="105" width="65" height="31" as="geometry" />
        </mxCell>
        <mxCell id="YC68AUHZQJWw9kAWprd--29" value="" style="endArrow=none;dashed=1;html=1;dashPattern=1 3;strokeWidth=2;rounded=0;fontSize=12;startSize=8;endSize=8;curved=1;" parent="1" edge="1">
          <mxGeometry width="50" height="50" relative="1" as="geometry">
            <mxPoint x="355" y="578" as="sourcePoint" />
            <mxPoint x="352" y="20" as="targetPoint" />
          </mxGeometry>
        </mxCell>
        <mxCell id="YC68AUHZQJWw9kAWprd--30" value="Thread 0" style="rounded=0;whiteSpace=wrap;html=1;fillColor=#dae8fc;strokeColor=#6c8ebf;" parent="1" vertex="1">
          <mxGeometry x="407.63" y="148" width="74" height="110" as="geometry" />
        </mxCell>
        <mxCell id="YC68AUHZQJWw9kAWprd--31" value="Thread 3" style="rounded=0;whiteSpace=wrap;html=1;fillColor=#d5e8d4;strokeColor=#82b366;" parent="1" vertex="1">
          <mxGeometry x="408.13" y="308" width="74" height="117" as="geometry" />
        </mxCell>
        <mxCell id="YC68AUHZQJWw9kAWprd--32" value="Context switch" style="rounded=0;whiteSpace=wrap;html=1;" parent="1" vertex="1">
          <mxGeometry x="407.63" y="266" width="74" height="34" as="geometry" />
        </mxCell>
        <mxCell id="YC68AUHZQJWw9kAWprd--33" value="Context switch" style="rounded=0;whiteSpace=wrap;html=1;" parent="1" vertex="1">
          <mxGeometry x="407.63" y="436" width="74" height="34" as="geometry" />
        </mxCell>
        <mxCell id="YC68AUHZQJWw9kAWprd--34" value="Thread 0" style="rounded=0;whiteSpace=wrap;html=1;fillColor=#dae8fc;strokeColor=#6c8ebf;" parent="1" vertex="1">
          <mxGeometry x="408.13" y="479" width="74" height="99" as="geometry" />
        </mxCell>
        <mxCell id="YC68AUHZQJWw9kAWprd--35" value="Thread 1" style="rounded=0;whiteSpace=wrap;html=1;fillColor=#fff2cc;strokeColor=#d6b656;" parent="1" vertex="1">
          <mxGeometry x="506.88" y="148" width="74" height="135" as="geometry" />
        </mxCell>
        <mxCell id="YC68AUHZQJWw9kAWprd--36" value="Thread 0" style="rounded=0;whiteSpace=wrap;html=1;fillColor=#dae8fc;strokeColor=#6c8ebf;" parent="1" vertex="1">
          <mxGeometry x="507.38" y="334" width="74" height="84" as="geometry" />
        </mxCell>
        <mxCell id="YC68AUHZQJWw9kAWprd--37" value="Context switch" style="rounded=0;whiteSpace=wrap;html=1;" parent="1" vertex="1">
          <mxGeometry x="506.88" y="290" width="74" height="34" as="geometry" />
        </mxCell>
        <mxCell id="YC68AUHZQJWw9kAWprd--38" value="Context switch" style="rounded=0;whiteSpace=wrap;html=1;" parent="1" vertex="1">
          <mxGeometry x="507.38" y="426" width="74" height="34" as="geometry" />
        </mxCell>
        <mxCell id="YC68AUHZQJWw9kAWprd--39" value="Thread 1" style="rounded=0;whiteSpace=wrap;html=1;fillColor=#fff2cc;strokeColor=#d6b656;" parent="1" vertex="1">
          <mxGeometry x="507.38" y="468" width="74" height="110" as="geometry" />
        </mxCell>
      </root>
    </mxGraphModel>
  </diagram>
</mxfile>
